<?xml version="1.0" encoding="UTF-8" standalone="yes"?>
<!-- Created with sK1/UniConvertor (http://sk1project.org/) -->
<svg xmlns="http://www.w3.org/2000/svg" xmlns:xlink="http://www.w3.org/1999/xlink"
  width="25.6pt" height="25.6pt" viewBox="0 0 25.6 25.6"
  fill-rule="evenodd">
<g>
<path style="stroke:none; fill:#fffcfc" d="M 0 0L 0 8.8L 0.8 8.8C 2.85007 5.26317 5.26317 2.85007 8.8 0.800001C 6.05406 -0.352243 2.96015 0 0 0z"/>
<path style="stroke:none; fill:#efe1d5" d="M 8.8 0L 8.8 0.800001L 11.2 0.800001C 10.2013 0.252159 9.96128 0.200964 8.8 0z"/>
<path style="stroke:none; fill:#fcdc5f" d="M 11.2 0L 11.2 0.800001L 14.4 0.800001C 13.1952 0.253571 12.5482 0.139288 11.2 0z"/>
<path style="stroke:none; fill:#f7dda8" d="M 14.9334 0.266668C 14.5778 0.622219 15.4222 0.577778 15.4666 0.533333C 15.8222 0.177786 14.9778 0.222214 14.9334 0.266668z"/>
<path style="stroke:none; fill:#fffcfc" d="M 16 0L 16 0.800001C 20.0022 2.56053 22.7718 4.9015 24.8 8.8L 25.6 8.8L 25.6 0L 16 0z"/>
<path style="stroke:none; fill:#f7dda8" d="M 7.2 0.800001L 8 1.6L 7.2 0.800001z"/>
<path style="stroke:none; fill:#ffc817" d="M 19.2 22.4C 15.6596 22.867 12.3879 23.3267 8.8 23.2L 8.8 22.4C 11.9358 19.8822 7.8205 12.8255 8 8.8C 3.4143 3.5083 12.3367 2.41051 16 2.4L 16 3.2L 13.6 3.2C 15.1058 6.38233 20.2142 7.72634 20.9988 10.5118C 22.1251 14.5102 12.7604 17.7623 17.6 21.6C 17.6 20.1626 17.5886 20.3828 16.8 19.2C 18.338 18.4788 18.399 18.339 19.2 16.8C 20.0181 18.0271 19.8437 17.9218 20.8 18.4C 22.3378 15.2046 22.3977 12.3038 22.4 8.8L 23.2 8.8L 22.4 20C 20.7011 20.7194 20.7194 20.7011 20 22.4C 33.87 14.7856 17.6182 -7.7685 4.83518 3.38272C -0.335848 7.89367 -0.94156 17.1653 4.26358 21.9734C 7.73448 25.1796 16.1694 26.6895 19.2 22.4z"/>
<path style="stroke:none; fill:#f7dda8" d="M 4.8 2.4L 5.6 3.2L 4.8 2.4z"/>
<path style="stroke:none; fill:#ecb013" d="M 6.4 4C 9.21032 5.36201 12.9083 3.62758 16 3.2C 12.7324 1.82937 9.51448 2.50122 6.4 4z"/>
<path style="stroke:none; fill:#fcdc5f" d="M 20 2.4L 20.8 3.2L 20 2.4M 4 3.2L 4.8 4L 4 3.2z"/>
<path style="stroke:none; fill:#d26c43" d="M 10.4 3.2L 10.4 4L 12.8 4C 11.8013 3.45216 11.5613 3.40097 10.4 3.2z"/>
<path style="stroke:none; fill:#fcdc5f" d="M 3.2 4L 4 4.8L 3.2 4z"/>
<path style="stroke:none; fill:#ba343b" d="M 8.8 6.4L 13.6 4.8C 11.2957 3.92159 10.1198 4.35638 8.8 6.4z"/>
<path style="stroke:none; fill:#f7dda8" d="M 2.4 4.8L 3.2 5.6L 2.4 4.8M 6.93334 5.06666C 6.57778 5.42222 7.42222 5.37778 7.46666 5.33334C 7.82222 4.97779 6.97778 5.02222 6.93334 5.06666z"/>
<path style="stroke:none; fill:#b3857a" d="M 11.2 4.8L 11.2 5.6L 14.4 5.6C 13.1952 5.05357 12.5482 4.93929 11.2 4.8z"/>
<path style="stroke:none; fill:#fcdc5f" d="M 22.4 4.8L 23.2 5.6L 22.4 4.8z"/>
<path style="stroke:none; fill:#fffcfc" d="M 5.6 5.6L 5.6 8L 8 8L 8 5.6L 5.6 5.6z"/>
<path style="stroke:none; fill:#efe1d5" d="M 8 5.6C 8.04664 7.82757 8.28168 9.83264 8.8 12L 9.6 12L 12 8L 8.8 9.6C 8.9252 7.77746 8.9248 7.12188 8 5.6z"/>
<path style="stroke:none; fill:#e3ac9f" d="M 10.1334 5.86666C 9.77776 6.22223 10.6222 6.17778 10.6666 6.13334C 11.0222 5.77778 10.1778 5.82222 10.1334 5.86666z"/>
<path style="stroke:none; fill:#949293" d="M 11.2 5.6L 11.2 8C 12.8047 7.09871 12.8047 6.5013 11.2 5.6z"/>
<path style="stroke:none; fill:#fffcfc" d="M 12.8 5.6C 13.2624 7.75798 13.8091 7.83147 16 8C 15.0193 6.37226 14.6379 6.13884 12.8 5.6z"/>
<path style="stroke:none; fill:#f7dda8" d="M 23.2 5.6L 24 6.4L 23.2 5.6z"/>
<path style="stroke:none; fill:#ecb013" d="M 4 6.4C 2.46222 9.59544 2.40232 12.4962 2.4 16L 3.2 16C 3.22823 12.8421 4.53519 9.38568 4 6.4z"/>
<path style="stroke:none; fill:#fffcfc" d="M 9.6 6.4L 8.8 9.6C 10.5467 8.46448 10.9142 8.06328 9.6 6.4z"/>
<path style="stroke:none; fill:#a7937b" d="M 10.4 6.4L 11.2 7.2L 10.4 6.4z"/>
<path style="stroke:none; fill:#c4a0a0" d="M 11.2 6.4L 12 7.2L 11.2 6.4z"/>
<path style="stroke:none; fill:#f7dda8" d="M 0.8 7.2L 1.6 8L 0.8 7.2M 16 7.2L 16.8 8L 16 7.2M 24 7.2L 24.8 8L 24 7.2z"/>
<path style="stroke:none; fill:#fcdc5f" d="M 6.93334 8.26664C 6.57778 8.62224 7.42222 8.57776 7.46666 8.53336C 7.82222 8.17776 6.97778 8.22224 6.93334 8.26664z"/>
<path style="stroke:none; fill:#e3ac9f" d="M 12 8C 11.0959 9.12 10.2259 9.9328 9.6 11.2L 13.6 11.2C 14.5782 10.2438 14.736 10.1469 16 9.6C 14.6815 8.86072 13.4601 8.44048 12 8z"/>
<path style="stroke:none; fill:#efe1d5" d="M 12.8 8L 12.8 8.8L 16 8.8L 16 9.6L 13.6 9.6L 13.6 10.4L 16.8 10.4C 16.0806 12.0989 16.0989 12.0806 14.4 12.8L 14.4 13.6C 17.3494 12.6219 17.5037 10.9533 17.6 8L 12.8 8z"/>
<path style="stroke:none; fill:#efb35f" d="M 17.6 12.8L 19.2 12.8L 19.2 8.8L 20 8.8C 20.0753 10.5639 20.285 11.9153 20.8 13.6C 22.687 8.9392 18.055 6.95694 17.6 12.8z"/>
<path style="stroke:none; fill:#efe1d5" d="M 0 8.8L 0 11.2L 0.8 11.2C 0.599035 10.0387 0.547842 9.79872 0 8.8z"/>
<path style="stroke:none; fill:#d26c43" d="M 19.2 8.8L 19.2 12.8L 20 12.8C 19.9299 11.2287 19.8231 10.2152 19.2 8.8z"/>
<path style="stroke:none; fill:#fcdc5f" d="M 22.4 8.8C 22.3886 12.7726 21.791 15.637 20 19.2L 22.4 20C 22.5246 16.1704 23.9555 12.5069 22.4 8.8z"/>
<path style="stroke:none; fill:#f7dda8" d="M 24.8 8.8L 24.8 11.2L 25.6 11.2C 25.399 10.0387 25.3478 9.79872 24.8 8.8z"/>
<path style="stroke:none; fill:#fffcfc" d="M 8 10.4L 8.8 16C 12.3122 15.3613 15.6226 13.9578 16.8 10.4C 13.8099 10.4787 10.4766 12.2574 8 10.4z"/>
<path style="stroke:none; fill:#f7dda8" d="M 10.9334 10.6666C 10.5778 11.0222 11.4222 10.9778 11.4666 10.9334C 11.8222 10.5778 10.9778 10.6222 10.9334 10.6666z"/>
<path style="stroke:none; fill:#fcdc5f" d="M 0 11.2L 0 14.4L 0.8 14.4C 0.660714 13.0518 0.546428 12.4048 0 11.2z"/>
<path style="stroke:none; fill:#f7dda8" d="M 7.46666 11.7334C 7.42222 11.7778 7.37777 12.6222 7.73334 12.2666C 7.77778 12.2222 7.82222 11.3778 7.46666 11.7334z"/>
<path style="stroke:none; fill:#ecb013" d="M 24.8 11.2L 24.8 14.4L 25.6 14.4C 25.4607 13.0518 25.3464 12.4048 24.8 11.2z"/>
<path style="stroke:none; fill:#fffcfc" d="M 16 15.2C 17.5589 14.4514 18.0402 14.0861 19.2 12.8C 17.4328 13.3471 17.0373 13.6639 16 15.2z"/>
<path style="stroke:none; fill:#949293" d="M 19.2 12.8L 20 13.6L 19.2 12.8z"/>
<path style="stroke:none; fill:#4d454d" d="M 20 12.8L 20.8 13.6L 20 12.8z"/>
<path style="stroke:none; fill:#f7dda8" d="M 8 13.6L 8 16L 8.8 16C 8.59904 14.8387 8.54784 14.5987 8 13.6z"/>
<path style="stroke:none; fill:#949293" d="M 14.4 13.6L 14.4 14.4C 15.932 15.4214 15.268 15.4214 16.8 14.4L 16.8 13.6L 14.4 13.6z"/>
<path style="stroke:none; fill:#4d454d" d="M 15.2 13.6L 16 14.4L 15.2 13.6z"/>
<path style="stroke:none; fill:#f7dda8" d="M 18.9334 13.8666C 18.5778 14.2222 19.4222 14.1778 19.4666 14.1334C 19.8222 13.7778 18.9778 13.8222 18.9334 13.8666M 0.266666 14.9334C 0.222222 14.9778 0.177777 15.8222 0.533334 15.4666C 0.577778 15.4222 0.622222 14.5778 0.266666 14.9334z"/>
<path style="stroke:none; fill:#c4a0a0" d="M 13.3334 14.6666C 12.9778 15.0222 13.8222 14.9778 13.8666 14.9334C 14.2222 14.5778 13.3778 14.6222 13.3334 14.6666z"/>
<path style="stroke:none; fill:#efe1d5" d="M 14.4 14.4L 12.8 17.6C 15.0277 17.0131 15.8657 16.377 14.4 14.4z"/>
<path style="stroke:none; fill:#f7dda8" d="M 17.6 14.4L 18.4 15.2L 17.6 14.4M 25.0666 14.9334C 25.0222 14.9778 24.9778 15.8222 25.3334 15.4666C 25.3778 15.4222 25.4222 14.5778 25.0666 14.9334z"/>
<path style="stroke:none; fill:#e3ac9f" d="M 11.2 15.2L 12 16L 11.2 15.2z"/>
<path style="stroke:none; fill:#ba343b" d="M 8.8 16C 10.5548 18.0031 12.2237 17.1285 14.4 16C 12.5251 15.4785 10.7654 15.8674 8.8 16z"/>
<path style="stroke:none; fill:#e3ac9f" d="M 16 15.2L 16.8 16L 16 15.2z"/>
<path style="stroke:none; fill:#ba343b" d="M 16.8 15.2C 15.851 16.149 15.5777 16.467 15.2 17.6C 17.0006 17.2214 17.6942 16.9118 16.8 15.2z"/>
<path style="stroke:none; fill:#fffcfc" d="M 0 16L 0 25.6L 8.8 25.6L 8.8 24.8C 4.69969 22.6668 2.86525 19.4058 0 16z"/>
<path style="stroke:none; fill:#c4a0a0" d="M 10.1334 16.2666C 9.77776 16.6222 10.6222 16.5778 10.6666 16.5334C 11.0222 16.1778 10.1778 16.2222 10.1334 16.2666z"/>
<path style="stroke:none; fill:#b3857a" d="M 12.8 16L 13.6 16.8L 12.8 16z"/>
<path style="stroke:none; fill:#fffcfc" d="M 24.8 16C 23.3202 20.3525 20.3525 23.3202 16 24.8L 16 25.6L 25.6 25.6C 25.6 22.4134 26.0412 18.958 24.8 16z"/>
<path style="stroke:none; fill:#f7dda8" d="M 19.2 16.8L 18.4 18.4L 20 18.4C 20 16.9174 20.2398 17.3198 19.2 16.8z"/>
<path style="stroke:none; fill:#8e4747" d="M 9.6 17.6C 10.5782 18.5562 10.736 18.6531 12 19.2C 11.2158 17.7734 11.2739 17.9246 9.6 17.6z"/>
<path style="stroke:none; fill:#d26c43" d="M 12 17.6C 12 19.0374 12.0114 18.8172 12.8 20L 13.6 20C 14.3886 18.8172 14.4 19.0374 14.4 17.6L 12 17.6z"/>
<path style="stroke:none; fill:#8e4747" d="M 13.6 20L 16.8 18.4C 14.9895 17.7418 14.598 18.3972 13.6 20z"/>
<path style="stroke:none; fill:#f7dda8" d="M 24 17.6L 24.8 18.4L 24 17.6z"/>
<path style="stroke:none; fill:#d26c43" d="M 15.2 18.4L 16 19.2L 15.2 18.4z"/>
<path style="stroke:none; fill:#fffcfc" d="M 16.8 19.2C 18.7634 21.0377 19.6366 21.0377 21.6 19.2C 19.8146 18.9098 18.5854 18.9098 16.8 19.2z"/>
<path style="stroke:none; fill:#ba343b" d="M 11.7334 19.4666C 11.3778 19.8222 12.2222 19.7778 12.2666 19.7334C 12.6222 19.3778 11.7778 19.4222 11.7334 19.4666z"/>
<path style="stroke:none; fill:#f7dda8" d="M 23.2 19.2L 24 20L 23.2 19.2z"/>
<path style="stroke:none; fill:#fcdc5f" d="M 2.4 20L 3.2 20.8L 2.4 20z"/>
<path style="stroke:none; fill:#e3ac9f" d="M 10.6666 20.5334C 10.6222 20.5778 10.5778 21.4222 10.9334 21.0666C 10.9778 21.0222 11.0222 20.1778 10.6666 20.5334z"/>
<path style="stroke:none; fill:#efe1d5" d="M 11.2 20L 11.2 21.6L 15.2 21.6L 15.2 20L 11.2 20z"/>
<path style="stroke:none; fill:#efb35f" d="M 15.4666 20.5334C 15.4222 20.5778 15.3778 21.4222 15.7334 21.0666C 15.7778 21.0222 15.8222 20.1778 15.4666 20.5334M 22.4 20L 23.2 20.8L 22.4 20z"/>
<path style="stroke:none; fill:#fcdc5f" d="M 8.8 22.4L 8.8 23.2C 12.8667 23.6296 16.7635 22.7803 20.8 23.2C 17.5686 20.404 12.82 22.1542 8.8 22.4z"/>
<path style="stroke:none; fill:#8e4747" d="M 10.4 21.6L 10.4 22.4L 12.8 22.4C 11.8013 21.8522 11.5613 21.801 10.4 21.6z"/>
<path style="stroke:none; fill:#4d454d" d="M 14.1334 21.8666C 13.7778 22.2222 14.6222 22.1778 14.6666 22.1334C 15.0222 21.7778 14.1778 21.8222 14.1334 21.8666z"/>
<path style="stroke:none; fill:#a7937b" d="M 15.2 21.6L 16 22.4L 15.2 21.6z"/>
<path style="stroke:none; fill:#fcdc5f" d="M 4.8 22.4L 5.6 23.2L 4.8 22.4z"/>
<path style="stroke:none; fill:#f7dda8" d="M 5.6 23.2L 6.4 24L 5.6 23.2M 19.2 23.2L 20 24L 19.2 23.2M 7.2 24L 8 24.8L 7.2 24M 17.6 24L 18.4 24.8L 17.6 24M 8.8 24.8L 8.8 25.6L 11.2 25.6C 10.2013 25.0522 9.96128 25.001 8.8 24.8z"/>
<path style="stroke:none; fill:#ecb013" d="M 11.2 24.8L 11.2 25.6L 14.4 25.6C 13.1952 25.0536 12.5482 24.9393 11.2 24.8z"/>
<path style="stroke:none; fill:#e3ac9f" d="M 14.9334 25.0666C 14.5778 25.4222 15.4222 25.3778 15.4666 25.3334C 15.8222 24.9778 14.9778 25.0222 14.9334 25.0666z"/>
</g>
</svg>